<?xml version="1.0" standalone="no"?>
<!DOCTYPE svg PUBLIC "-//W3C//DTD SVG 20010904//EN"
 "http://www.w3.org/TR/2001/REC-SVG-20010904/DTD/svg10.dtd">
<svg version="1.0" xmlns="http://www.w3.org/2000/svg"
 width="128.000000pt" height="128.000000pt" viewBox="0 0 128.000000 128.000000"
 preserveAspectRatio="xMidYMid meet">
<metadata>
Created by potrace 1.16, written by Peter Selinger 2001-2019
</metadata>
<g transform="translate(0.000000,128.000000) scale(0.100000,-0.100000)"
fill="#000000" stroke="none">
<path d="M435 745 c-16 -9 -37 -24 -46 -34 -9 -11 -27 -21 -40 -23 -22 -3 -24
-8 -27 -60 -2 -43 0 -58 10 -58 7 0 22 -17 33 -37 30 -55 77 -83 141 -83 31 0
54 4 54 11 0 5 5 7 10 4 6 -4 23 7 39 23 l29 29 31 -30 c59 -59 192 -44 230
26 9 17 24 39 34 49 26 28 21 121 -8 127 -11 2 -35 16 -52 32 -59 51 -148 51
-207 -1 l-33 -30 -19 22 c-41 46 -123 61 -179 33z m135 -20 c16 -8 34 -24 40
-35 6 -11 17 -20 25 -20 8 0 19 9 25 20 16 29 63 50 114 50 38 0 52 -6 85 -35
21 -19 46 -35 55 -35 12 0 16 -10 16 -40 0 -22 -4 -40 -10 -40 -5 0 -16 -15
-24 -33 -7 -18 -28 -45 -45 -60 -60 -50 -169 -28 -203 42 l-14 29 -13 -28
c-30 -70 -142 -94 -202 -43 -17 15 -38 42 -45 60 -8 18 -19 33 -24 33 -6 0
-10 18 -10 40 0 33 3 40 20 40 10 0 23 6 27 13 33 53 122 74 183 42z"/>
<path d="M454 710 c-12 -4 -30 -20 -42 -34 -11 -14 -27 -26 -36 -26 -9 0 -16
-8 -16 -20 0 -11 7 -20 15 -20 9 0 15 -9 15 -25 0 -42 49 -86 101 -92 41 -5
50 -2 81 26 20 17 38 44 41 61 4 18 13 30 22 30 9 0 18 -12 22 -30 3 -17 21
-44 41 -61 31 -28 40 -31 81 -26 52 6 101 50 101 92 0 16 6 25 15 25 8 0 15 9
15 20 0 11 -7 20 -15 20 -8 0 -28 14 -43 31 -21 24 -39 32 -74 36 -42 5 -49 2
-85 -31 -22 -20 -48 -36 -58 -36 -10 0 -35 16 -56 35 -40 36 -79 44 -125 25z
m102 -44 c58 -49 20 -146 -57 -146 -43 0 -79 39 -79 85 0 74 80 110 136 61z
m269 -1 c34 -33 34 -87 0 -120 -51 -52 -139 -14 -139 60 0 74 88 112 139 60z"/>
</g>
</svg>
